<?xml version="1.0" standalone="no"?>
<!DOCTYPE svg PUBLIC "-//W3C//DTD SVG 20010904//EN"
 "http://www.w3.org/TR/2001/REC-SVG-20010904/DTD/svg10.dtd">
<svg version="1.0" xmlns="http://www.w3.org/2000/svg"
 width="450.000000pt" height="450.000000pt" viewBox="0 0 450.000000 450.000000"
 preserveAspectRatio="xMidYMid meet">
<metadata>
Created by potrace 1.10, written by Peter Selinger 2001-2011
</metadata>
<g transform="translate(0.000000,450.000000) scale(0.050000,-0.050000)"
fill="#23702c" stroke="none">
<path d="M4181 8118 c-522 -47 -1355 -330 -1576 -537 -25 -24 -45 -37 -45 -31
0 7 -67 -34 -150 -91 -82 -57 -150 -112 -150 -121 0 -10 -10 -18 -22 -18 -21
0 -288 -234 -288 -252 0 -5 -60 -71 -133 -147 -381 -397 -673 -960 -861 -1661
l-61 -230 11 -490 c10 -470 38 -730 98 -920 161 -510 307 -818 455 -957 39
-37 60 -62 46 -54 -33 18 -33 -38 0 -73 14 -15 47 -69 74 -120 27 -51 56 -89
65 -84 9 6 16 0 16 -12 0 -13 34 -55 75 -95 41 -39 62 -64 45 -55 -28 16 28
-57 105 -136 20 -20 30 -46 22 -58 -8 -13 -4 -16 9 -8 27 16 250 -202 233
-229 -6 -10 2 -14 17 -8 16 6 34 -3 41 -20 15 -40 112 -40 141 0 21 28 33 24
100 -30 43 -33 93 -61 112 -61 19 0 47 -14 62 -32 14 -18 45 -40 67 -50 23
-10 86 -45 141 -77 55 -32 115 -59 133 -60 17 0 43 -14 57 -31 14 -16 42 -30
63 -30 22 0 72 -18 113 -39 137 -73 211 -102 293 -114 44 -7 105 -25 135 -40
30 -15 97 -27 150 -27 53 0 132 -14 176 -29 118 -43 995 -43 1097 -1 39 17
117 30 173 30 56 0 121 12 146 28 24 15 80 33 124 41 44 7 107 25 140 39 208
94 253 112 271 112 258 0 1189 737 1455 1152 56 87 111 169 123 182 11 13 48
76 81 140 34 64 70 130 80 146 29 46 100 215 100 237 0 11 13 45 28 76 60 120
112 281 112 343 0 36 12 85 28 110 43 69 94 898 69 1124 -8 66 -20 177 -27
246 -7 69 -22 155 -32 190 -22 77 -23 134 -3 134 38 -1 69 -40 74 -92 8 -94
34 -208 48 -210 97 -12 108 -11 81 10 -15 12 -27 47 -26 77 1 30 -8 55 -20 55
-12 0 -9 9 8 20 26 16 26 26 -2 84 -52 106 -74 163 -85 216 -30 140 -62 240
-77 240 -15 0 -50 70 -65 130 -12 46 -40 103 -74 148 -21 26 -37 63 -37 83 0
19 -13 40 -30 46 -16 7 -30 27 -30 47 0 19 -38 74 -85 123 -47 49 -75 83 -62
76 18 -10 18 -1 0 37 -13 27 -39 50 -58 50 -20 0 -35 15 -36 35 0 39 -116 172
-166 191 -18 7 -33 22 -33 33 0 12 -13 21 -29 21 -15 0 -34 17 -40 38 -7 21
-35 53 -62 71 -27 17 -49 50 -49 71 0 22 -10 40 -22 40 -12 0 -17 15 -10 32 9
23 4 29 -18 21 -16 -6 -27 -4 -25 5 7 24 -273 243 -492 385 -523 339 -1082
538 -1707 606 -307 34 -323 34 -605 9z m729 -197 c110 -10 272 -38 360 -61 88
-24 183 -48 210 -53 155 -29 692 -278 934 -434 1453 -933 1953 -2811 1169
-4388 -826 -1663 -2925 -2359 -4618 -1532 -867 423 -1564 1272 -1807 2200
-156 595 -142 1421 30 1833 15 35 43 114 62 174 62 193 135 348 253 540 31 50
75 126 99 170 421 772 1610 1508 2521 1561 125 7 232 18 237 23 10 11 174 1
550 -33z m2956 -2252 c19 -39 34 -95 33 -125 l-1 -54 -32 60 c-38 70 -68 190
-48 190 8 0 30 -32 48 -71z"/>
<path d="M7375 6328 c-7 -6 3 -29 22 -50 33 -39 117 -261 137 -363 6 -30 19
-55 28 -55 10 0 16 -7 14 -15 -3 -8 6 -34 19 -57 13 -24 18 -48 11 -55 -7 -7
-2 -13 11 -13 12 0 23 -10 23 -21 0 -12 -9 -16 -20 -9 -11 7 -20 4 -20 -7 0
-10 15 -24 32 -31 25 -10 27 -19 9 -40 -16 -20 -16 -30 -1 -35 12 -4 24 -21
27 -37 2 -17 11 -41 20 -55 8 -14 8 -25 -1 -25 -9 0 -2 -9 14 -20 20 -13 22
-19 5 -20 -14 0 -25 -9 -25 -20 0 -11 14 -20 30 -20 30 0 42 -62 16 -87 -19
-19 -26 -73 -9 -73 43 0 64 -85 29 -113 -20 -17 -26 -25 -13 -19 29 15 77 -40
50 -56 -13 -8 -13 -37 -1 -80 22 -79 12 -164 -19 -157 -12 2 -16 -9 -10 -25 6
-17 18 -30 26 -30 27 0 -2 -337 -34 -388 -6 -10 0 -11 15 -2 29 18 12 -180
-19 -220 -23 -29 -18 -90 7 -90 12 0 9 -9 -7 -19 -18 -11 -28 -50 -27 -110 1
-50 -6 -96 -15 -102 -10 -6 -12 -24 -6 -40 7 -17 -3 -47 -21 -67 -18 -20 -28
-50 -21 -67 6 -16 -4 -45 -22 -63 -24 -25 -27 -40 -11 -60 16 -19 12 -35 -19
-63 -24 -21 -37 -53 -32 -73 5 -20 2 -36 -7 -36 -20 0 -61 -113 -46 -127 6 -6
-4 -26 -23 -44 -18 -19 -29 -44 -25 -56 4 -13 -5 -35 -20 -49 -14 -15 -21 -35
-15 -46 6 -10 -2 -18 -18 -18 -34 0 -59 -54 -40 -85 7 -12 4 -15 -8 -8 -11 7
-26 -1 -33 -18 -6 -18 -3 -26 8 -19 38 23 20 -5 -50 -79 -38 -40 -70 -86 -70
-100 0 -15 -23 -41 -51 -60 -27 -18 -45 -41 -39 -51 6 -10 -5 -35 -24 -56 -20
-20 -63 -70 -96 -111 -98 -122 -187 -210 -199 -198 -6 7 -11 -3 -11 -22 0 -18
-8 -33 -17 -33 -31 0 -241 -196 -227 -211 8 -8 0 -10 -17 -4 -17 6 -54 -13
-86 -46 -32 -32 -73 -53 -94 -49 -23 5 -33 -2 -27 -18 6 -15 -23 -40 -71 -62
-45 -20 -81 -44 -81 -53 0 -9 -7 -16 -15 -14 -31 6 -145 -48 -135 -63 6 -9 -6
-14 -25 -11 -44 7 -125 -29 -125 -56 0 -11 -6 -14 -13 -7 -7 7 -31 2 -55 -11
-23 -13 -55 -25 -70 -28 -15 -2 -33 -13 -40 -23 -16 -25 -162 -71 -177 -56 -6
7 -26 0 -43 -15 -28 -23 -94 -41 -312 -83 -121 -24 -141 -27 -196 -28 -32 -1
-51 -11 -44 -22 15 -25 -10 -26 -48 -2 -16 10 -54 10 -90 -1 -93 -28 -353 -38
-395 -15 -30 15 -37 12 -37 -16 0 -21 -7 -27 -15 -16 -9 12 -135 22 -302 24
-246 4 -299 10 -374 47 -48 23 -99 35 -112 27 -14 -9 -18 -6 -9 9 8 13 4 23
-8 23 -12 0 -16 10 -8 23 8 14 5 18 -8 10 -11 -8 -27 -4 -34 7 -18 30 -55 1
-42 -32 9 -24 3 -25 -44 -1 -29 15 -70 25 -89 22 -19 -3 -35 2 -35 12 0 17
-155 70 -185 63 -8 -2 -15 5 -15 16 0 11 -7 19 -15 18 -55 -9 -106 5 -93 25 9
14 5 18 -9 9 -28 -17 -109 35 -88 57 8 8 2 12 -15 9 -36 -7 -213 81 -350 175
-84 57 -89 59 -36 12 420 -370 1273 -645 1999 -645 2355 1 3980 2233 3253
4470 -87 268 -319 730 -351 698z"/>
<path d="M3042 6095 c-2 -34 -62 -52 -62 -18 0 21 -117 4 -131 -19 -6 -10 -47
-18 -90 -18 -49 0 -80 -9 -80 -25 -1 -14 -10 -7 -19 15 -15 35 -17 36 -19 4 0
-20 -13 -33 -29 -30 -15 3 -47 -16 -71 -44 -24 -27 -38 -39 -31 -25 17 35 -32
31 -86 -6 -27 -19 -44 -23 -44 -9 0 12 -9 17 -20 10 -12 -7 -15 -21 -9 -31 10
-17 -18 -27 -39 -14 -5 3 -30 -14 -55 -37 -26 -23 -76 -59 -112 -79 -36 -21
-65 -45 -65 -53 0 -9 -14 -16 -32 -16 -20 0 -28 -11 -21 -29 8 -20 1 -25 -21
-17 -24 10 -30 4 -21 -19 12 -30 -33 -66 -71 -58 -10 2 -11 -6 -3 -19 8 -12 3
-29 -10 -37 -13 -8 -26 -28 -28 -43 -2 -15 -13 -41 -23 -58 -43 -66 -67 -121
-49 -109 10 6 19 2 19 -10 0 -11 -8 -21 -18 -21 -23 0 -39 -160 -18 -173 9 -5
12 -31 7 -58 -4 -27 5 -62 21 -78 16 -16 29 -34 29 -40 -3 -42 2 -52 19 -41
11 7 20 4 20 -6 0 -34 70 -98 155 -142 47 -23 85 -34 85 -22 0 43 47 16 161
-93 107 -102 130 -113 121 -61 -1 9 49 39 113 68 63 29 121 62 129 73 30 46
111 -27 106 -94 -3 -35 -7 -79 -8 -99 -1 -22 -11 -31 -25 -22 -16 10 -20 4
-11 -19 7 -18 4 -33 -6 -33 -10 0 -14 -13 -8 -28 6 -15 1 -34 -11 -41 -11 -7
-21 -53 -21 -102 0 -70 -7 -89 -34 -89 -24 0 -28 -6 -12 -22 14 -14 15 -47 1
-105 -11 -45 -20 -94 -21 -108 0 -19 -7 -19 -29 -1 -23 19 -25 14 -14 -31 8
-33 5 -53 -8 -53 -12 0 -17 -13 -10 -30 6 -16 12 -78 14 -138 2 -85 13 -117
48 -148 25 -21 45 -54 45 -73 0 -18 8 -28 18 -22 11 6 33 -2 49 -19 20 -20 52
-27 88 -21 47 8 71 -3 125 -59 82 -85 69 -103 -55 -75 -52 12 -103 16 -113 10
-11 -7 -78 -13 -151 -15 -142 -4 -289 -28 -272 -45 6 -6 -12 -32 -39 -57 -69
-63 -42 -168 43 -168 10 0 70 -46 133 -102 l114 -101 74 45 c40 25 67 36 60
24 -9 -15 0 -19 26 -12 22 6 40 17 40 25 0 8 20 13 45 11 25 -3 64 3 87 11 23
9 53 8 67 -1 15 -8 54 -7 89 3 34 11 89 23 122 27 33 5 98 17 144 26 56 12 87
11 91 -2 4 -12 19 -8 35 9 16 18 50 26 86 20 39 -5 55 -1 47 13 -8 12 10 26
42 33 30 6 78 17 105 23 28 6 64 13 80 16 17 2 42 11 55 19 14 9 34 10 45 3
11 -7 20 -2 20 10 0 12 9 17 20 10 12 -7 54 -1 95 13 41 15 84 28 95 29 11 2
25 5 30 7 6 3 36 9 68 14 33 5 73 17 90 26 18 9 65 17 105 17 39 0 92 11 116
24 24 12 56 18 71 13 15 -6 30 -2 34 9 3 10 33 23 66 29 33 6 110 20 170 31
61 12 142 23 180 26 39 2 102 15 140 27 80 26 421 43 407 20 -5 -8 5 -15 23
-15 17 0 54 -14 81 -32 34 -23 71 -29 124 -20 41 7 98 15 125 18 32 2 70 32
106 80 30 41 64 70 75 64 10 -7 19 -3 19 9 0 23 55 19 95 -6 14 -8 25 -8 25 1
0 9 7 5 16 -8 37 -59 192 -143 228 -124 23 13 49 12 73 0 30 -16 49 -8 95 41
73 76 144 113 208 107 28 -3 66 3 85 13 27 14 32 11 22 -18 -12 -33 -11 -33
16 1 15 20 43 38 62 41 42 6 115 72 115 104 0 13 12 34 27 47 22 17 26 78 22
263 -5 169 0 236 15 226 14 -8 16 -4 6 13 -66 107 -17 422 57 369 57 -40 115
-40 62 0 -31 23 -32 30 -8 30 38 1 97 155 90 234 -14 148 -38 267 -54 267 -9
0 -17 12 -17 27 0 16 -31 49 -70 75 -38 27 -70 55 -70 64 0 24 -44 64 -85 80
-27 10 -33 27 -24 69 9 40 7 47 -8 26 -16 -23 -40 -8 -124 80 -57 60 -110 109
-116 109 -7 0 -11 6 -9 13 3 7 -6 12 -20 11 -74 -2 -135 8 -127 21 5 8 -24 16
-64 16 -40 1 -122 9 -183 17 -60 9 -138 15 -172 13 -35 -1 -87 7 -117 18 -35
14 -49 14 -41 1 18 -29 -37 -25 -67 5 -21 20 -25 19 -19 -5 4 -22 -11 -30 -54
-29 -33 1 -67 -10 -76 -25 -11 -17 -33 -23 -58 -15 -27 9 -36 6 -28 -8 14 -23
-76 -56 -125 -46 -15 3 -22 -3 -15 -14 15 -23 -81 -49 -114 -30 -13 7 -17 6
-9 -3 30 -33 -26 -69 -78 -49 -34 13 -45 12 -36 -2 16 -26 -50 -78 -82 -66
-12 5 -70 -14 -128 -41 -58 -27 -118 -44 -133 -38 -15 5 -33 -3 -39 -20 -7
-17 -27 -26 -48 -20 -19 5 -73 -3 -118 -18 -52 -18 -165 -28 -312 -27 -143 1
-231 -6 -231 -19 0 -11 -8 -9 -16 5 -21 33 -165 49 -198 22 -20 -17 -26 -14
-26 8 0 40 -61 63 -88 33 -16 -18 -15 -20 3 -10 14 8 25 5 25 -7 0 -21 -44
-18 -104 8 -39 17 -82 -3 -65 -30 6 -11 2 -19 -10 -19 -89 0 32 -159 164 -217
41 -18 75 -39 75 -48 0 -8 14 -15 30 -15 75 0 1 -90 -96 -116 -41 -12 -70 -14
-65 -5 6 8 -21 32 -60 53 -38 20 -69 43 -69 51 0 7 -45 19 -99 27 -54 7 -110
26 -122 42 -13 15 -36 28 -50 28 -15 0 -39 18 -55 40 -15 22 -34 34 -41 27 -7
-8 -13 -7 -13 1 0 8 14 29 32 47 25 25 29 54 19 124 -22 160 -22 171 4 166 14
-3 25 5 25 16 0 13 17 16 42 8 212 -67 837 -42 995 39 34 18 78 32 99 32 21 0
54 18 73 39 20 22 45 38 57 35 63 -13 95 187 45 284 -16 32 -25 61 -20 67 6 5
-12 5 -40 0 -33 -6 -51 -1 -51 16 0 14 -6 20 -13 13 -7 -8 -27 -2 -44 11 -25
20 -28 20 -16 0 10 -15 2 -30 -18 -38 -18 -7 -39 -3 -46 8 -7 12 -37 20 -66
18 -29 -2 -49 -10 -44 -18 5 -8 -4 -15 -21 -15 -16 0 -35 9 -43 21 -8 14 -21
14 -36 2 -37 -31 -242 -15 -300 23 -38 25 -49 27 -41 7 8 -21 -4 -26 -46 -19
-31 4 -67 9 -81 10 -14 2 -25 17 -26 34 0 29 -3 29 -25 0 -19 -25 -36 -28 -74
-14 -28 11 -159 22 -292 25 -134 3 -252 11 -264 19 -12 7 -27 4 -34 -8 -18
-30 -224 -25 -237 5 -6 15 -10 11 -11 -10z m1821 -222 c-188 -200 -586 -252
-1233 -161 -759 106 -1294 -41 -1463 -402 -137 -293 57 -542 304 -389 148 91
224 399 98 399 -16 0 -29 9 -29 20 0 34 72 22 127 -21 66 -52 72 -164 15 -275
-190 -369 -711 -298 -711 96 0 549 803 856 1900 728 445 -53 790 -50 909 6
118 56 136 56 83 -1z m-1436 -282 c39 -40 18 -129 -98 -421 -49 -125 -89 -233
-89 -241 0 -15 201 1 305 24 53 11 54 10 33 -50 -34 -97 -62 -109 -236 -99
l-157 9 -123 -371 c-183 -555 -231 -790 -181 -883 29 -55 -61 -54 -111 1 -70
77 5 494 179 1000 40 116 75 223 77 239 5 38 -177 30 -241 -11 -58 -38 -57
-15 5 76 48 70 56 74 174 80 l123 6 68 200 c104 309 108 445 9 346 -19 -19
-24 -16 -24 10 0 83 222 149 287 85z m3297 -74 c186 -49 247 -99 265 -219 25
-157 26 -158 120 -158 109 0 167 -46 192 -150 42 -183 10 -314 -71 -283 -22 9
-30 44 -30 141 0 180 -23 232 -102 232 l-63 0 13 -135 c53 -563 34 -1025 -41
-1025 -61 0 -80 101 -28 144 l48 38 -21 510 c-15 342 -30 519 -46 538 -71 86
-529 136 -790 86 l-140 -27 -4 -619 c-3 -341 0 -640 5 -665 l10 -45 529 0 530
0 0 -51 c0 -114 -25 -129 -219 -129 -168 0 -179 -3 -192 -45 -37 -121 -172
-175 -252 -102 -50 45 -47 74 6 46 51 -28 137 4 137 51 0 16 0 36 0 43 0 7
-146 11 -325 9 -369 -3 -373 -2 -397 130 -33 175 -161 219 -191 67 -13 -62
-47 -82 -47 -27 0 110 108 212 191 180 39 -15 89 -132 89 -209 0 -32 11 -67
25 -79 20 -16 25 127 26 705 l2 725 -162 -58 c-374 -137 -841 -222 -981 -178
-52 16 -44 19 62 20 342 5 1067 223 1096 329 42 156 19 160 -240 45 -603 -267
-1155 -320 -1658 -159 -232 74 -172 82 103 13 468 -115 909 -64 1476 172 255
106 433 165 571 190 93 16 349 -9 504 -51z m-3750 17 c56 20 95 -163 42 -196
-10 -7 -19 -41 -20 -77 -1 -36 -15 -69 -30 -75 -16 -6 -23 -24 -17 -40 6 -15
2 -23 -8 -17 -10 7 -24 2 -32 -10 -22 -36 -65 43 -59 110 2 34 -9 76 -25 95
-16 18 -25 41 -20 50 12 22 -58 86 -77 69 -8 -7 -8 3 -1 24 7 20 13 45 13 56
0 11 8 14 18 8 10 -6 39 -3 65 6 26 10 65 11 87 3 22 -8 51 -10 64 -6z m-521
-279 c33 -53 25 -133 -15 -146 -21 -6 -38 -19 -38 -28 0 -10 -17 -13 -38 -7
-30 8 -36 23 -28 73 15 99 85 163 119 108z m4377 -117 l80 -28 13 -150 c7 -83
18 -251 25 -375 l13 -224 -56 22 c-128 51 -635 43 -770 -13 -33 -13 -35 12
-35 377 0 391 0 392 45 402 25 5 63 14 85 19 80 19 521 -3 600 -30z m-2981
-306 c260 -109 10 -561 -362 -655 -98 -24 -123 -126 -77 -311 48 -195 435 86
530 384 110 345 352 610 557 610 72 0 174 -45 190 -85 7 -17 22 -10 48 22 32
39 50 45 101 34 l63 -14 -67 -133 c-268 -533 -359 -919 -207 -873 96 29 287
283 378 502 44 106 87 136 110 76 16 -41 -110 -293 -222 -445 -230 -313 -518
-301 -477 19 l12 87 -78 -114 c-185 -272 -415 -291 -457 -39 l-15 83 -87 -97
c-103 -114 -194 -163 -303 -163 -414 0 -242 974 198 1115 90 29 89 29 165 -3z
m1803 -40 c121 -121 72 -320 -107 -433 -167 -106 -218 -72 -65 44 168 128 206
353 63 374 -183 26 -256 -251 -145 -552 137 -371 70 -532 -233 -559 -310 -28
-263 323 57 425 48 15 47 47 -2 206 -83 263 -37 450 128 525 131 59 224 50
304 -30z m808 -538 c28 2 83 9 123 14 76 9 130 -37 61 -51 -74 -15 -294 13
-299 39 -4 18 5 21 30 9 19 -9 58 -14 85 -11z m-280 -195 c12 -22 16 -59 9
-81 -18 -59 -117 -45 -126 18 -12 91 77 139 117 63z m740 -19 c0 -13 -126 -20
-339 -20 -204 0 -344 8 -351 20 -8 13 110 20 339 20 221 0 351 -7 351 -20z m0
-80 c0 -13 -130 -20 -351 -20 -229 0 -347 7 -339 20 7 12 147 20 351 20 213 0
339 -7 339 -20z m-1100 -150 c0 -119 -23 -190 -60 -190 -66 0 -88 209 -28 269
45 45 88 6 88 -79z m-2660 -73 c0 -50 152 -137 239 -137 22 0 69 -18 104 -39
35 -21 71 -35 79 -30 19 12 45 -29 49 -76 1 -22 -14 -39 -39 -44 -45 -9 -158
-27 -222 -36 -22 -3 -46 -13 -53 -24 -8 -11 -27 -8 -45 8 -18 14 -32 17 -32 6
0 -27 -136 -13 -172 17 -16 13 -25 28 -19 33 5 6 1 27 -10 48 -14 25 -14 37 0
37 12 0 20 7 19 15 -2 8 -1 20 2 25 4 10 12 86 17 171 3 41 83 67 83 26z
m2820 -104 c0 -111 -147 -198 -216 -129 -36 36 -29 48 30 47 40 -1 65 16 95
63 49 76 91 85 91 19z m-2108 -11 c38 -3 73 -102 36 -102 -17 0 -24 10 -17 21
9 16 1 16 -29 0 -99 -50 -114 -54 -150 -42 -46 17 56 139 108 129 17 -3 40 -6
52 -6z m1842 -14 c5 -14 -66 -26 -208 -35 -363 -22 -798 -104 -1456 -272 -853
-219 -1588 -313 -1730 -221 -16 11 -21 19 -10 19 564 4 812 41 1650 251 995
249 1722 356 1754 258z"/>
<path d="M6185 5502 c-97 -25 -125 -58 -125 -146 l0 -80 105 17 c173 28 493
17 621 -20 156 -47 197 0 98 112 -74 84 -530 161 -699 117z"/>
<path d="M6824 3785 c4 -19 20 -35 36 -35 16 0 32 16 36 35 5 25 -6 35 -36 35
-30 0 -41 -10 -36 -35z"/>
<path d="M4381 4665 c-189 -195 -331 -524 -317 -735 16 -256 251 -5 487 518
l116 258 -46 37 c-74 60 -121 45 -240 -78z"/>
<path d="M3692 4699 c-115 -101 -311 -459 -251 -459 74 0 294 165 359 269 128
208 57 335 -108 190z"/>
<path d="M5162 3973 c-128 -98 -164 -169 -111 -222 98 -97 284 101 237 254
-14 47 -24 45 -126 -32z"/>
<path d="M8051 5023 c4 -40 13 -154 20 -252 14 -219 77 -283 75 -77 0 24 5 43
12 43 45 -6 89 7 62 18 -42 16 -80 58 -66 72 6 7 1 25 -12 41 -16 19 -17 33
-3 41 25 16 14 126 -16 156 -51 51 -80 33 -72 -42z"/>
<path d="M7238 2168 c-15 -18 -29 -54 -33 -81 l-7 -49 42 42 c23 23 37 49 31
59 -6 10 0 21 13 26 17 5 17 12 2 21 -12 8 -33 -1 -48 -18z"/>
<path d="M2357 1633 c13 -15 16 -33 8 -42 -8 -8 -6 -12 5 -9 33 7 91 -25 79
-44 -6 -10 3 -18 21 -18 18 0 27 -9 20 -20 -7 -11 -2 -20 10 -20 13 0 60 -26
106 -57 46 -31 116 -72 155 -90 39 -19 101 -61 138 -95 46 -42 71 -54 81 -37
12 18 17 17 24 -2 7 -23 31 -33 116 -47 17 -2 50 -15 74 -28 55 -30 72 -30 54
-1 -7 12 14 2 48 -23 37 -28 77 -41 103 -35 22 6 41 3 41 -8 0 -11 8 -14 18
-8 11 6 35 -4 54 -24 32 -32 35 -32 23 -1 -7 18 -7 37 1 41 8 5 1 5 -15 1 -15
-4 -65 18 -110 50 -44 32 -94 59 -111 60 -47 3 -88 14 -115 31 -14 8 -25 10
-25 3 0 -7 -25 5 -55 26 -58 40 -185 89 -185 72 0 -6 -14 3 -31 21 -18 17 -45
31 -60 31 -16 0 -29 7 -29 15 0 8 -47 46 -105 84 -58 38 -130 95 -160 127 -30
31 -64 51 -75 44 -11 -7 -20 -3 -20 9 0 11 -24 21 -52 21 -42 0 -48 -6 -31
-27z"/>
</g>
</svg>
