<?xml version="1.0" encoding="UTF-8"?>
<svg version="1.1" xmlns="http://www.w3.org/2000/svg" width="395" height="264">
<path d="M0 0 C3.85969769 0.43043197 5.27826731 1.52070131 8.1875 4.04296875 C9.3940625 5.06970703 9.3940625 5.06970703 10.625 6.1171875 C11.470625 6.85582031 12.31625 7.59445313 13.1875 8.35546875 C14.16074219 9.12117187 15.13398438 9.886875 16.13671875 10.67578125 C19.61276868 13.56469819 22.27107665 16.96055498 25 20.54296875 C25.48919922 21.17138672 25.97839844 21.79980469 26.48242188 22.44726562 C30.02236729 27.02520334 30.02236729 27.02520334 31.1875 29.35546875 C32.0064978 29.36093719 32.0064978 29.36093719 32.84204102 29.36651611 C38.55315886 29.40850526 44.2634853 29.47796423 49.97412109 29.56298828 C52.10197005 29.59111818 54.22992194 29.61237221 56.35791016 29.62646484 C59.4266398 29.64800483 62.49414211 29.69471246 65.5625 29.74609375 C66.50552979 29.74732239 67.44855957 29.74855103 68.42016602 29.74981689 C78.16382085 29.96321819 84.3057961 33.70901111 91 40.54296875 C91.56605957 41.12030762 92.13211914 41.69764648 92.71533203 42.29248047 C97.42975967 47.28774397 100.31507676 51.5017199 100.1289196 58.58420181 C99.32932858 67.3170111 97.85059261 75.92151687 96.36767578 84.55761719 C96.07649337 86.27194042 95.78566037 87.98632303 95.49514771 89.70075989 C94.70994596 94.32718183 93.91924737 98.95264743 93.12702799 103.57787228 C92.63172114 106.47121894 92.1376347 109.3647713 91.64397812 112.25839996 C89.92017021 122.36263231 88.19192539 132.46609404 86.45947266 142.56884766 C84.84681505 151.97371521 83.24389456 161.38020733 81.6454736 170.78750396 C80.26992105 178.88056041 78.88762376 186.97244601 77.5000838 195.06345582 C76.67265042 199.88905179 75.84792944 204.7150725 75.03000259 209.54228973 C74.26126664 214.07777508 73.48413281 218.61174248 72.70057297 223.14468956 C72.41496341 224.80539459 72.13232405 226.46661368 71.85292053 228.1283741 C71.47020016 230.40174036 71.0766637 232.67298299 70.68045044 234.94403076 C70.35470126 236.8486867 70.35470126 236.8486867 70.02237129 238.79182053 C68.63526754 244.7126731 66.52674188 249.96385671 62.1875 254.35546875 C59.7571773 255.75262431 57.48501812 256.92684055 54.9375 258.04296875 C54.30714844 258.33751953 53.67679687 258.63207031 53.02734375 258.93554688 C44.00359269 263.02472123 35.86784862 263.64646512 26.04820251 263.61616516 C24.07300207 263.62190348 24.07300207 263.62190348 22.05789858 263.62775773 C18.4181507 263.6380155 14.77850156 263.63586162 11.13874567 263.63157713 C7.2075529 263.62910594 3.27638368 263.63812883 -0.65480042 263.64561462 C-8.34968702 263.65835165 -16.0445387 263.66015665 -23.73943407 263.65781436 C-29.99347816 263.65603032 -36.24751166 263.65778268 -42.50155449 263.6620388 C-43.39211583 263.66263399 -44.28267717 263.66322918 -45.20022522 263.66384241 C-47.00944683 263.66505417 -48.81866844 263.6662683 -50.62789004 263.66748478 C-67.58645897 263.67835599 -84.54500801 263.67619951 -101.50357806 263.67009994 C-117.01802905 263.66492828 -132.5324173 263.67619353 -148.04685587 263.69519816 C-163.98145375 263.71456774 -179.91602193 263.72283428 -195.85063165 263.7190749 C-204.79505029 263.71716189 -213.7394155 263.71966039 -222.68382454 263.73378944 C-230.29616766 263.74569282 -237.90842443 263.74711968 -245.52076871 263.73499928 C-249.40418365 263.72910393 -253.28744055 263.7280293 -257.17084503 263.74000168 C-261.38075112 263.7528299 -265.59027985 263.74241209 -269.80018616 263.72969055 C-271.02722466 263.73706484 -272.25426316 263.74443912 -273.51848465 263.75203687 C-280.56058819 263.70715215 -286.01177133 263.39605169 -291.6875 258.85546875 C-294.19560941 255.51132287 -293.94464413 252.12074552 -293.95967102 248.11271667 C-293.96682632 246.80465561 -293.97398163 245.49659454 -293.98135376 244.14889526 C-293.984194 242.69586205 -293.98690573 241.24282859 -293.98950195 239.78979492 C-293.99576724 238.26215968 -294.0024141 236.73452597 -294.00941467 235.20689392 C-294.03044761 230.18741923 -294.04081552 225.16794425 -294.05078125 220.1484375 C-294.05482893 218.42031653 -294.05894585 216.69219573 -294.06313133 214.96407509 C-294.08218038 206.84611339 -294.09641268 198.72816078 -294.1047433 190.61018103 C-294.11451866 181.23913061 -294.14084707 171.86831621 -294.18124419 162.49734896 C-294.2113984 155.2539405 -294.22621147 148.01059973 -294.22952431 140.76712972 C-294.23187538 136.44088572 -294.24084319 132.11489395 -294.26598549 127.78871727 C-294.28925953 123.71830842 -294.29350231 119.64831801 -294.28322411 115.57785988 C-294.28272849 114.0855228 -294.28905674 112.59316517 -294.30278015 111.10089111 C-294.32049249 109.06039469 -294.31100978 107.01971666 -294.30024719 104.97917175 C-294.30263555 103.83820132 -294.3050239 102.69723089 -294.30748463 101.5216856 C-293.32253432 95.22135605 -288.76722696 91.01160694 -284.40478516 86.65722656 C-283.87739243 86.12311661 -283.34999969 85.58900665 -282.80662537 85.03871155 C-281.07683628 83.29005838 -279.33972883 81.5489175 -277.6015625 79.80859375 C-276.38839374 78.58899195 -275.17537321 77.36924268 -273.9624939 76.14935303 C-271.42580726 73.60072478 -268.88505477 71.05623017 -266.34179688 68.51416016 C-263.08787184 65.26043881 -259.84794955 61.99314898 -256.61136818 58.72218704 C-254.11316331 56.20172733 -251.60590294 53.69042816 -249.09601974 51.18160248 C-247.89753752 49.98076469 -246.7022865 48.77669278 -245.51039505 47.56931305 C-243.8426329 45.8819086 -242.16261529 44.20770392 -240.47900391 42.53613281 C-239.99256912 42.03845901 -239.50613434 41.54078522 -239.00495911 41.0280304 C-233.76259653 35.88019432 -228.72391738 35.10450318 -221.56118774 35.11495972 C-220.49994141 35.11239644 -220.49994141 35.11239644 -219.41725576 35.10978138 C-217.05882748 35.10650071 -214.700687 35.11746648 -212.34228516 35.12841797 C-210.64684048 35.12898239 -208.95139532 35.12866492 -207.25595093 35.12753296 C-202.66136846 35.12695966 -198.06689065 35.13871037 -193.47233248 35.15268087 C-188.66770745 35.16519194 -183.86307997 35.16635903 -179.05844116 35.16873169 C-169.96379747 35.17494535 -160.86920191 35.19135464 -151.77457941 35.21143067 C-141.41914223 35.2337932 -131.06370274 35.24478399 -120.70824742 35.25482154 C-99.40963809 35.27572095 -78.11107208 35.31089474 -56.8125 35.35546875 C-56.35418541 34.19232903 -56.35418541 34.19232903 -55.88661194 33.00569153 C-54.05125442 28.47720048 -51.64943907 24.29228826 -49.25 20.04296875 C-48.76208984 19.11162109 -48.27417969 18.18027344 -47.77148438 17.22070312 C-44.08380434 10.77552611 -44.08380434 10.77552611 -40.72143555 9.66455078 C-35.23937121 9.49165261 -29.92019438 11.17889389 -24.75 12.85546875 C-23.59467773 13.21318359 -23.59467773 13.21318359 -22.41601562 13.578125 C-20.54463827 14.15929809 -18.67802022 14.75576076 -16.8125 15.35546875 C-15.96945312 14.44023437 -15.12640625 13.525 -14.2578125 12.58203125 C-13.15106366 11.38149014 -12.04429162 10.18097042 -10.9375 8.98046875 C-10.38191406 8.3771875 -9.82632812 7.77390625 -9.25390625 7.15234375 C-8.71894531 6.57226562 -8.18398438 5.9921875 -7.6328125 5.39453125 C-6.89442139 4.59329834 -6.89442139 4.59329834 -6.14111328 3.77587891 C-2.95908322 0.37399524 -2.95908322 0.37399524 0 0 Z " fill="#FCC818" transform="translate(294.8125,0.64453125)"/>
<path d="M0 0 C3.85969769 0.43043197 5.27826731 1.52070131 8.1875 4.04296875 C9.3940625 5.06970703 9.3940625 5.06970703 10.625 6.1171875 C11.470625 6.85582031 12.31625 7.59445313 13.1875 8.35546875 C14.16074219 9.12117187 15.13398438 9.886875 16.13671875 10.67578125 C19.61276868 13.56469819 22.27107665 16.96055498 25 20.54296875 C25.48919922 21.17138672 25.97839844 21.79980469 26.48242188 22.44726562 C30.02236729 27.02520334 30.02236729 27.02520334 31.1875 29.35546875 C32.0064978 29.36093719 32.0064978 29.36093719 32.84204102 29.36651611 C38.55315886 29.40850526 44.2634853 29.47796423 49.97412109 29.56298828 C52.10197005 29.59111818 54.22992194 29.61237221 56.35791016 29.62646484 C59.4266398 29.64800483 62.49414211 29.69471246 65.5625 29.74609375 C66.50552979 29.74732239 67.44855957 29.74855103 68.42016602 29.74981689 C78.16382085 29.96321819 84.3057961 33.70901111 91 40.54296875 C91.56605957 41.12030762 92.13211914 41.69764648 92.71533203 42.29248047 C97.42975967 47.28774397 100.31507676 51.5017199 100.1289196 58.58420181 C99.32932858 67.3170111 97.85059261 75.92151687 96.36767578 84.55761719 C96.07649337 86.27194042 95.78566037 87.98632303 95.49514771 89.70075989 C94.70994596 94.32718183 93.91924737 98.95264743 93.12702799 103.57787228 C92.63172114 106.47121894 92.1376347 109.3647713 91.64397812 112.25839996 C89.92017021 122.36263231 88.19192539 132.46609404 86.45947266 142.56884766 C84.84681505 151.97371521 83.24389456 161.38020733 81.6454736 170.78750396 C80.26992105 178.88056041 78.88762376 186.97244601 77.5000838 195.06345582 C76.67265042 199.88905179 75.84792944 204.7150725 75.03000259 209.54228973 C74.26126664 214.07777508 73.48413281 218.61174248 72.70057297 223.14468956 C72.41496341 224.80539459 72.13232405 226.46661368 71.85292053 228.1283741 C71.47020016 230.40174036 71.0766637 232.67298299 70.68045044 234.94403076 C70.35470126 236.8486867 70.35470126 236.8486867 70.02237129 238.79182053 C68.63526754 244.7126731 66.52674188 249.96385671 62.1875 254.35546875 C59.7571773 255.75262431 57.48501812 256.92684055 54.9375 258.04296875 C54.30714844 258.33751953 53.67679687 258.63207031 53.02734375 258.93554688 C44.00359269 263.02472123 35.86784862 263.64646512 26.04820251 263.61616516 C24.07300207 263.62190348 24.07300207 263.62190348 22.05789858 263.62775773 C18.4181507 263.6380155 14.77850156 263.63586162 11.13874567 263.63157713 C7.2075529 263.62910594 3.27638368 263.63812883 -0.65480042 263.64561462 C-8.34968702 263.65835165 -16.0445387 263.66015665 -23.73943407 263.65781436 C-29.99347816 263.65603032 -36.24751166 263.65778268 -42.50155449 263.6620388 C-43.39211583 263.66263399 -44.28267717 263.66322918 -45.20022522 263.66384241 C-47.00944683 263.66505417 -48.81866844 263.6662683 -50.62789004 263.66748478 C-67.58645897 263.67835599 -84.54500801 263.67619951 -101.50357806 263.67009994 C-117.01802905 263.66492828 -132.5324173 263.67619353 -148.04685587 263.69519816 C-163.98145375 263.71456774 -179.91602193 263.72283428 -195.85063165 263.7190749 C-204.79505029 263.71716189 -213.7394155 263.71966039 -222.68382454 263.73378944 C-230.29616766 263.74569282 -237.90842443 263.74711968 -245.52076871 263.73499928 C-249.40418365 263.72910393 -253.28744055 263.7280293 -257.17084503 263.74000168 C-261.38075112 263.7528299 -265.59027985 263.74241209 -269.80018616 263.72969055 C-271.02722466 263.73706484 -272.25426316 263.74443912 -273.51848465 263.75203687 C-280.56058819 263.70715215 -286.01177133 263.39605169 -291.6875 258.85546875 C-294.19560941 255.51132287 -293.94464413 252.12074552 -293.95967102 248.11271667 C-293.96682632 246.80465561 -293.97398163 245.49659454 -293.98135376 244.14889526 C-293.984194 242.69586205 -293.98690573 241.24282859 -293.98950195 239.78979492 C-293.99576724 238.26215968 -294.0024141 236.73452597 -294.00941467 235.20689392 C-294.03044761 230.18741923 -294.04081552 225.16794425 -294.05078125 220.1484375 C-294.05482893 218.42031653 -294.05894585 216.69219573 -294.06313133 214.96407509 C-294.08218038 206.84611339 -294.09641268 198.72816078 -294.1047433 190.61018103 C-294.11451866 181.23913061 -294.14084707 171.86831621 -294.18124419 162.49734896 C-294.2113984 155.2539405 -294.22621147 148.01059973 -294.22952431 140.76712972 C-294.23187538 136.44088572 -294.24084319 132.11489395 -294.26598549 127.78871727 C-294.28925953 123.71830842 -294.29350231 119.64831801 -294.28322411 115.57785988 C-294.28272849 114.0855228 -294.28905674 112.59316517 -294.30278015 111.10089111 C-294.32049249 109.06039469 -294.31100978 107.01971666 -294.30024719 104.97917175 C-294.30263555 103.83820132 -294.3050239 102.69723089 -294.30748463 101.5216856 C-293.32253432 95.22135605 -288.76722696 91.01160694 -284.40478516 86.65722656 C-283.87739243 86.12311661 -283.34999969 85.58900665 -282.80662537 85.03871155 C-281.07683628 83.29005838 -279.33972883 81.5489175 -277.6015625 79.80859375 C-276.38839374 78.58899195 -275.17537321 77.36924268 -273.9624939 76.14935303 C-271.42580726 73.60072478 -268.88505477 71.05623017 -266.34179688 68.51416016 C-263.08787184 65.26043881 -259.84794955 61.99314898 -256.61136818 58.72218704 C-254.11316331 56.20172733 -251.60590294 53.69042816 -249.09601974 51.18160248 C-247.89753752 49.98076469 -246.7022865 48.77669278 -245.51039505 47.56931305 C-243.8426329 45.8819086 -242.16261529 44.20770392 -240.47900391 42.53613281 C-239.99256912 42.03845901 -239.50613434 41.54078522 -239.00495911 41.0280304 C-233.76259653 35.88019432 -228.72391738 35.10450318 -221.56118774 35.11495972 C-220.49994141 35.11239644 -220.49994141 35.11239644 -219.41725576 35.10978138 C-217.05882748 35.10650071 -214.700687 35.11746648 -212.34228516 35.12841797 C-210.64684048 35.12898239 -208.95139532 35.12866492 -207.25595093 35.12753296 C-202.66136846 35.12695966 -198.06689065 35.13871037 -193.47233248 35.15268087 C-188.66770745 35.16519194 -183.86307997 35.16635903 -179.05844116 35.16873169 C-169.96379747 35.17494535 -160.86920191 35.19135464 -151.77457941 35.21143067 C-141.41914223 35.2337932 -131.06370274 35.24478399 -120.70824742 35.25482154 C-99.40963809 35.27572095 -78.11107208 35.31089474 -56.8125 35.35546875 C-56.35418541 34.19232903 -56.35418541 34.19232903 -55.88661194 33.00569153 C-54.05125442 28.47720048 -51.64943907 24.29228826 -49.25 20.04296875 C-48.76208984 19.11162109 -48.27417969 18.18027344 -47.77148438 17.22070312 C-44.08380434 10.77552611 -44.08380434 10.77552611 -40.72143555 9.66455078 C-35.23937121 9.49165261 -29.92019438 11.17889389 -24.75 12.85546875 C-23.59467773 13.21318359 -23.59467773 13.21318359 -22.41601562 13.578125 C-20.54463827 14.15929809 -18.67802022 14.75576076 -16.8125 15.35546875 C-15.96945312 14.44023437 -15.12640625 13.525 -14.2578125 12.58203125 C-13.15106366 11.38149014 -12.04429162 10.18097042 -10.9375 8.98046875 C-10.38191406 8.3771875 -9.82632812 7.77390625 -9.25390625 7.15234375 C-8.71894531 6.57226562 -8.18398438 5.9921875 -7.6328125 5.39453125 C-6.89442139 4.59329834 -6.89442139 4.59329834 -6.14111328 3.77587891 C-2.95908322 0.37399524 -2.95908322 0.37399524 0 0 Z M-277.91615319 95.95618701 C-290.2705967 120.79096531 -285.88642082 152.91371053 -284.125 179.16796875 C-283.031875 202.32984375 -281.93875 225.49171875 -280.8125 249.35546875 C-191.3825 249.35546875 -101.9525 249.35546875 -9.8125 249.35546875 C-12.09907027 247.06889848 -13.30189602 246.80041033 -16.390625 246.0234375 C-17.30457031 245.78173828 -18.21851563 245.54003906 -19.16015625 245.29101562 C-21.07758172 244.7968205 -22.99684655 244.30970166 -24.91796875 243.83007812 C-32.08543042 241.91506908 -36.68303572 239.83359374 -40.6875 233.29296875 C-43.7655234 224.9489294 -41.68086731 214.84845898 -40.125 206.35546875 C-39.94565918 205.3291333 -39.76631836 204.30279785 -39.58154297 203.24536133 C-39.00237203 199.94676692 -38.40849599 196.65106115 -37.8125 193.35546875 C-37.42264767 191.17196946 -37.03332705 188.98837517 -36.64453125 186.8046875 C-36.03619608 183.39268823 -35.42633809 179.98099447 -34.81201172 176.57006836 C-33.06645916 166.86233464 -31.40287446 157.14177879 -29.75 147.41796875 C-27.94663392 136.80915005 -26.098352 126.2152659 -24.01733398 115.65649414 C-23.14786793 111.2334748 -22.4094751 106.82391603 -21.8125 102.35546875 C-32.42908669 97.30746319 -43.32455071 93.93994537 -54.6875 91.04296875 C-55.35186066 90.8725708 -56.01622131 90.70217285 -56.70071411 90.52661133 C-64.04120071 88.6550524 -71.3597907 86.9672357 -78.84033203 85.76098633 C-80.8125 85.35546875 -80.8125 85.35546875 -81.8125 84.35546875 C-82.31013899 78.74882248 -81.33706679 75.74676485 -78.3125 71.0546875 C-77.95736328 70.49223831 -77.60222656 69.92978912 -77.23632812 69.35029602 C-76.10959997 67.57138917 -74.96232539 65.80701504 -73.8125 64.04296875 C-72.66677993 62.25878849 -71.52557084 60.47189665 -70.38867188 58.68208313 C-69.36124874 57.06873687 -68.32154336 55.46323192 -67.28125 53.8581543 C-65.64378507 51.55162551 -65.64378507 51.55162551 -65.8125 49.35546875 C-86.01161752 48.10004104 -106.20256769 47.17492634 -126.43298626 46.60942364 C-135.83564892 46.33942618 -145.21346356 45.97274524 -154.6003418 45.35717773 C-205.34835191 42.10410807 -251.35637351 46.58389575 -277.91615319 95.95618701 Z " fill="#FBFAF8" transform="translate(294.8125,0.64453125)"/>
<path d="M0 0 C5.58672194 -0.07436251 11.17315339 -0.12870254 16.76025391 -0.16479492 C18.65939353 -0.17984691 20.55849859 -0.20029316 22.45751953 -0.22631836 C25.19312081 -0.26285992 27.928261 -0.27976238 30.6640625 -0.29296875 C31.50804596 -0.30845261 32.35202942 -0.32393646 33.22158813 -0.33988953 C39.0546956 -0.34154093 43.05095518 0.67801783 47.75097656 4.37866211 C48.43885254 5.07100952 48.43885254 5.07100952 49.140625 5.77734375 C49.91019531 6.54788086 49.91019531 6.54788086 50.6953125 7.33398438 C51.20835937 7.86314453 51.72140625 8.39230469 52.25 8.9375 C53.04277344 9.72543945 53.04277344 9.72543945 53.8515625 10.52929688 C59.70096701 16.46035551 59.70096701 16.46035551 60.23925781 21.03198242 C60.14601011 26.54430778 59.61706313 31.86981774 58.75 37.3125 C58.61722656 38.17351318 58.48445312 39.03452637 58.34765625 39.92163086 C57.24919609 46.85566064 55.89355917 53.72569275 54.47705078 60.60058594 C53.39244908 65.90559144 52.43990759 71.20969907 51.625 76.5625 C50.25398214 85.56058974 48.73242519 94.53050638 47.1875 103.5 C47.05861389 104.24887482 46.92972778 104.99774963 46.79693604 105.76931763 C46.13145266 109.63539777 45.46512994 113.50133253 44.79833984 117.3671875 C43.77561566 123.29883246 42.75902706 129.23152522 41.74291992 135.16430664 C41.24794052 138.05428207 40.75195785 140.94408254 40.25512695 143.83374023 C38.96588498 151.33606324 37.68874727 158.84020576 36.4296875 166.34765625 C31.98833311 192.79334443 31.98833311 192.79334443 29.9375 202.875 C29.81165527 203.55763916 29.68581055 204.24027832 29.55615234 204.94360352 C28.54557005 209.60120257 26.62055447 211.97386492 23 215 C20.46149709 216.63153281 17.76565463 217.79932619 15 219 C14.33613281 219.30164063 13.67226563 219.60328125 12.98828125 219.9140625 C5.69659938 222.9797205 -0.60907158 222.45896702 -8.0234375 219.94140625 C-9.42742534 219.47740495 -10.83209287 219.01545701 -12.23730469 218.55517578 C-12.99652222 218.30423157 -13.75573975 218.05328735 -14.53796387 217.79473877 C-19.1380464 216.30984426 -23.77908302 214.96097115 -28.4140625 213.58984375 C-30.43118719 212.98698891 -32.44811241 212.38346628 -34.46484375 211.77929688 C-37.56605466 210.85051409 -40.66801366 209.92480673 -43.77294922 209.00854492 C-46.82285783 208.10746801 -49.86869024 207.19361773 -52.9140625 206.27734375 C-54.3016124 205.87249001 -54.3016124 205.87249001 -55.7171936 205.4594574 C-61.82333616 203.60517885 -66.92425017 201.76766643 -70.875 196.5 C-73.68706558 187.75135152 -71.79569726 178.39841665 -69.9140625 169.6171875 C-69.44896065 167.32584007 -68.98725554 165.03380145 -68.52832031 162.74121094 C-68.28021606 161.50447632 -68.03211182 160.2677417 -67.77648926 158.99353027 C-66.3174496 151.58385005 -65.06141831 144.13618352 -63.7734375 136.6953125 C-63.49374815 135.08727333 -63.21390121 133.47926156 -62.93389893 131.87127686 C-61.78687329 125.27935624 -60.64453659 118.68662938 -59.50585938 112.09326172 C-58.79710345 107.99071267 -58.08398981 103.88893956 -57.36830521 99.78759384 C-57.10115628 98.2515419 -56.83563437 96.71520591 -56.57191086 95.17856216 C-55.05745743 86.35556151 -53.33378322 77.65136653 -51 69 C-49.515 69.495 -49.515 69.495 -48 70 C-47.31424391 80.22538525 -48.44405811 89.41067849 -50.58422852 99.39086914 C-52.96782774 110.56495493 -55.01000677 121.79192557 -57.02639771 133.03741455 C-57.61119961 136.29805411 -58.19985094 139.55798176 -58.78881836 142.81787109 C-60.67447406 153.3013244 -62.50483137 163.78528422 -64.06826782 174.32235718 C-64.89580146 179.79160292 -64.89580146 179.79160292 -66 182 C-66.49792639 186.61194112 -66.59611334 190.66584157 -64.6875 194.9375 C-61.39040082 197.46783193 -58.62352095 198.18487596 -54.609375 199.140625 C-50.14088909 200.20455022 -45.73060345 201.43263219 -41.3125 202.6875 C-39.98182495 203.06177124 -39.98182495 203.06177124 -38.62426758 203.44360352 C-33.57388387 204.88904438 -28.58725363 206.45438396 -23.62109375 208.16796875 C-22.02817505 208.71674683 -22.02817505 208.71674683 -20.40307617 209.27661133 C-18.35059042 209.99160423 -16.30227036 210.71870768 -14.2590332 211.4597168 C-8.26203108 213.55297628 -3.36418836 214.6719163 3 214 C5.19895286 210.7015707 5.59241158 208.63215266 6.26171875 204.75390625 C6.48972168 203.4611377 6.71772461 202.16836914 6.95263672 200.83642578 C7.07185486 200.14260803 7.191073 199.44879028 7.31390381 198.73394775 C7.9606571 194.9748329 8.6319304 191.22007867 9.30078125 187.46484375 C9.43979858 186.68133545 9.57881592 185.89782715 9.7220459 185.09057617 C11.17893684 176.91675251 12.77098803 168.77098906 14.375 160.625 C16.97883553 147.36904402 19.48360754 134.09699634 21.9375 120.8125 C24.5465292 106.69232421 27.23044066 92.58955256 30 78.5 C32.7001829 64.7408159 35.36634061 50.97558185 37.95703125 37.1953125 C38.31579823 35.29049211 38.67644118 33.38602399 39.0390625 31.48193359 C39.54181665 28.83919139 40.03747976 26.1952147 40.53125 23.55078125 C40.68082153 22.7714473 40.83039307 21.99211334 40.98449707 21.18916321 C42.57403453 14.03432292 42.57403453 14.03432292 41.02416992 7.15698242 C37.75086468 5.28601468 34.28796531 5.51785997 30.61328125 5.48828125 C29.79627243 5.47033005 28.97926361 5.45237885 28.13749695 5.43388367 C25.52921706 5.37972212 22.92112075 5.34586692 20.3125 5.3125 C18.54359421 5.27933201 16.77471267 5.24484283 15.00585938 5.20898438 C10.67070527 5.12399254 6.33560616 5.05720965 2 5 C1.01 2.525 1.01 2.525 0 0 Z " fill="#060606" transform="translate(329,36)"/>
<path d="M0 0 C8.25298246 5.19477069 15.39918623 12.10066616 17.91015625 21.76953125 C19.55331079 32.83666032 19.10461687 42.96106227 12.3203125 52.14453125 C7.91337887 57.37348358 3.77376331 61.14605205 -2.69140625 63.453125 C-3.76390625 63.865625 -4.83640625 64.278125 -5.94140625 64.703125 C-16.09441588 66.73372693 -24.98002746 65.74815122 -33.94140625 60.578125 C-41.77218902 54.52706558 -47.73387524 47.30055197 -49.69140625 37.453125 C-50.89301814 27.16679902 -48.95127735 18.67749977 -43.08203125 10.1015625 C-32.87392383 -2.40102778 -14.88122055 -7.12692519 0 0 Z " fill="#FAFBFC" transform="translate(293.69140625,31.546875)"/>
<path d="M0 0 C5.02405363 4.36874229 7.87292982 11.20847259 11 17 C11.46921875 17.86753906 11.9384375 18.73507813 12.421875 19.62890625 C19.30917897 33.56004383 22.64584982 49.72140945 25 65 C25.10296387 65.65806641 25.20592773 66.31613281 25.31201172 66.99414062 C26.80087839 76.73175203 27.25445991 86.16088359 27 96 C24.96463027 93.34387235 23.10707125 90.63547884 21.3125 87.8125 C8.60969991 68.89738162 -12.36690182 57.63499704 -33 49 C-30.0098194 47.00654627 -27.7967544 46.28951256 -24.375 45.3125 C-13.38296501 41.70158995 -7.28766548 35.07185509 -1.96875 25.05859375 C1.31569284 17.28845352 0.24050973 8.25750065 0 0 Z " fill="#176A91" transform="translate(314,52)"/>
<path d="M0 0 C4.62 0 9.24 0 14 0 C15.24586651 4.00164119 16.49122911 8.00343241 17.73535156 12.00561523 C18.15791442 13.36442901 18.58076067 14.72315469 19.00390625 16.08178711 C19.6153465 18.04517367 20.22573523 20.00888463 20.8359375 21.97265625 C21.20251465 23.15093994 21.5690918 24.32922363 21.94677734 25.54321289 C23.00570379 29.01872044 24.01222477 32.50374419 25 36 C25.31130859 34.74123047 25.31130859 34.74123047 25.62890625 33.45703125 C28.53462866 22.11377182 32.21221751 11.07607183 36 0 C40.62 0 45.24 0 50 0 C50.28881271 5.47668775 50.57346857 10.9535711 50.85449219 16.43066406 C50.95039154 18.28879438 51.04737098 20.14686932 51.14550781 22.00488281 C51.6731108 32.00780483 52.18586735 41.97865193 52 52 C49.03 52 46.06 52 43 52 C42.18074789 47.54062773 41.74526694 43.15697331 41.46484375 38.6328125 C41.38613037 37.38902832 41.30741699 36.14524414 41.22631836 34.86376953 C41.1310083 33.29997559 41.03569824 31.73618164 40.9375 30.125 C40.628125 25.13375 40.31875 20.1425 40 15 C36.04 26.88 32.08 38.76 28 51 C25.36 51 22.72 51 20 51 C15.61350289 38.44152535 11.80905578 26.0064184 9 13 C8.94465088 13.93271729 8.88930176 14.86543457 8.83227539 15.82641602 C8.62396265 19.3135409 8.41305772 22.80048951 8.20043945 26.28735352 C8.1092434 27.79152339 8.01905675 29.29575483 7.92993164 30.80004883 C7.80104854 32.97234108 7.66843957 35.14438006 7.53515625 37.31640625 C7.456604 38.62037354 7.37805176 39.92434082 7.29711914 41.26782227 C7.00885244 44.88880255 6.55425864 48.41254575 6 52 C3.03 52 0.06 52 -3 52 C-2.06153694 34.66312983 -1.02479266 17.33193026 0 0 Z " fill="#090700" transform="translate(60,82)"/>
<path d="M0 0 C21.13244542 10.56622271 43.22975403 22.19175688 53 45 C53.66218608 47.76636949 53.89217586 50.14266037 54 53 C48.05937749 52.27850403 42.34938508 50.96333733 36.54296875 49.53125 C35.55879471 49.29088013 34.57462067 49.05051025 33.56062317 48.80285645 C31.4919234 48.29678342 29.42362602 47.78906299 27.35571289 47.27978516 C24.18155997 46.49853799 21.00593491 45.723507 17.83007812 44.94921875 C15.81761836 44.45609622 13.80524543 43.96261913 11.79296875 43.46875 C10.84093063 43.23643677 9.88889252 43.00412354 8.90800476 42.76477051 C8.02981583 42.54784546 7.15162689 42.33092041 6.24682617 42.10742188 C5.47296066 41.91724487 4.69909515 41.72706787 3.90177917 41.53112793 C2 41 2 41 0 40 C0 26.8 0 13.6 0 0 Z " fill="#E61F2B" transform="translate(285,108)"/>
<path d="M0 0 C4.43737712 -0.08690253 8.87453634 -0.14035926 13.3125 -0.1875 C14.57513672 -0.21263672 15.83777344 -0.23777344 17.13867188 -0.26367188 C18.34716797 -0.27333984 19.55566406 -0.28300781 20.80078125 -0.29296875 C21.91622314 -0.3086792 23.03166504 -0.32438965 24.1809082 -0.34057617 C27 0 27 0 28.86791992 1.35424805 C30.66504361 3.96680159 30.28976019 5.87058996 30 9 C29.54513718 11.05761058 29.08827806 13.11479672 28.62231445 15.16992188 C27.28818848 21.23708087 26.12484735 27.340225 24.9375 33.4375 C24.7912619 34.18680786 24.6450238 34.93611572 24.49435425 35.70812988 C20.07165228 58.42399472 16.0529959 81.21588566 12 104 C11.67 104 11.34 104 11 104 C10.97129822 103.33998993 10.94259644 102.67997986 10.9130249 101.99996948 C9.49209225 50.46119885 9.49209225 50.46119885 0 0 Z " fill="#050505" transform="translate(334,48)"/>
<path d="M0 0 C3.63 0 7.26 0 11 0 C13.80322497 3.18446356 15.34817187 5.4356655 17.1875 9.125 C17.64318359 9.96160156 18.09886719 10.79820313 18.56835938 11.66015625 C20.07187828 14.42596557 21.5348188 17.21369163 23 20 C25.64 24.62 28.28 29.24 31 34 C31.33 22.78 31.66 11.56 32 0 C34.64 0 37.28 0 40 0 C40 16.83 40 33.66 40 51 C30 51 30 51 27.58300781 48.89550781 C26.77621582 47.43902832 26.77621582 47.43902832 25.953125 45.953125 C25.33566406 44.87933594 24.71820313 43.80554688 24.08203125 42.69921875 C23.47746094 41.56097656 22.87289062 40.42273438 22.25 39.25 C21.62996094 38.15816406 21.00992188 37.06632812 20.37109375 35.94140625 C16.32413103 28.74207258 12.69876603 21.39753207 9 14 C8.67 26.21 8.34 38.42 8 51 C5.36 51 2.72 51 0 51 C0 34.17 0 17.34 0 0 Z " fill="#010100" transform="translate(161,82)"/>
<path d="M0 0 C10.53377448 1.62618177 20.54908617 5.08838872 30 10 C30 10.33 30 10.66 30 11 C29.11699219 11.02578125 28.23398437 11.0515625 27.32421875 11.078125 C15.10529822 11.65560352 4.80432157 14.02405422 -4 23 C-10.10234391 30.94506483 -13.71229961 40.27619336 -13.34765625 50.359375 C-12.28258909 58.44909857 -9.45650592 65.2762777 -4.171875 71.4765625 C-3 73 -3 73 -3 75 C-9.78905203 73.75969242 -16.46257909 72.1672084 -23.1484375 70.47070312 C-28.0820507 69.22079156 -33.02383915 68.06632018 -38 67 C-36.53167568 61.86884491 -34.24306725 57.70916032 -31.5 53.1875 C-30.58841423 51.66153446 -29.67695933 50.13549072 -28.765625 48.609375 C-28.30220703 47.83787109 -27.83878906 47.06636719 -27.36132812 46.27148438 C-25.30400213 42.83867214 -23.27668233 39.38846176 -21.25 35.9375 C-20.85425781 35.26533447 -20.45851562 34.59316895 -20.05078125 33.90063477 C-17.46541828 29.50662515 -14.89379295 25.10475804 -12.328125 20.69921875 C-11.37824707 19.06835327 -11.37824707 19.06835327 -10.40917969 17.40454102 C-9.15374542 15.2479875 -7.89916333 13.09093763 -6.64550781 10.93334961 C-6.07155273 9.94729736 -5.49759766 8.96124512 -4.90625 7.9453125 C-4.39384766 7.06375488 -3.88144531 6.18219727 -3.35351562 5.27392578 C-2.28796019 3.48377728 -1.15559376 1.73339063 0 0 Z " fill="#186B92" transform="translate(255,15)"/>
<path d="M0 0 C9.98520469 1.29241125 18.14573267 11.43053504 24 19 C36.09964507 36.10831184 43.4291122 56.97350221 43 78 C41.45240014 75.67860021 40.42153831 73.82249946 39.37109375 71.296875 C28.47980382 45.63309762 14.42189025 27.24933819 -10 13 C-8.0462166 9.56735285 -5.95062384 6.62427937 -3.3125 3.6875 C-2.68988281 2.99011719 -2.06726563 2.29273438 -1.42578125 1.57421875 C-0.95527344 1.05472656 -0.48476563 0.53523437 0 0 Z " fill="#196C93" transform="translate(293,7)"/>
<path d="M0 0 C3.3 0 6.6 0 10 0 C10.63036226 1.66464597 11.25397593 3.33184776 11.875 5 C12.22304687 5.928125 12.57109375 6.85625 12.9296875 7.8125 C14.160641 11.47840532 15.06210159 15.24840635 16 19 C17.98 12.73 19.96 6.46 22 0 C25.63 0 29.26 0 33 0 C33.65764731 11.01559238 34.16207546 21.96086055 34 33 C31.69 33 29.38 33 27 33 C26.34 26.07 25.68 19.14 25 12 C23.02 18.6 21.04 25.2 19 32 C16.69 32 14.38 32 12 32 C10.35 25.73 8.7 19.46 7 13 C6.34 19.6 5.68 26.2 5 33 C2.69 33 0.38 33 -2 33 C-1.85990213 28.9997778 -1.71188256 24.99988539 -1.5625 21 C-1.52318359 19.87464844 -1.48386719 18.74929687 -1.44335938 17.58984375 C-1.21827453 11.66838092 -0.85527916 5.86477138 0 0 Z " fill="#E72328" transform="translate(58,193)"/>
<path d="M0 0 C3.3 0 6.6 0 10 0 C15.3484252 13.85728346 15.3484252 13.85728346 15 21 C15.66 21 16.32 21 17 21 C17.0825 20.113125 17.165 19.22625 17.25 18.3125 C18.07285859 12.36826778 20.16009656 6.69086414 22 1 C25.63 1 29.26 1 33 1 C33.63149942 11.67910627 34.17291697 22.2983611 34 33 C31.69 33 29.38 33 27 33 C25.85345518 30.70691037 25.80270883 29.20090344 25.68359375 26.6484375 C25.62643188 25.49867432 25.62643188 25.49867432 25.56811523 24.32568359 C25.52501221 23.35195801 25.48190918 22.37823242 25.4375 21.375 C25.293125 18.28125 25.14875 15.1875 25 12 C23.02 18.6 21.04 25.2 19 32 C16.69 32 14.38 32 12 32 C10.35 25.73 8.7 19.46 7 13 C6.34 19.6 5.68 26.2 5 33 C2.69 33 0.38 33 -2 33 C-1.85990213 28.9997778 -1.71188256 24.99988539 -1.5625 21 C-1.52318359 19.87464844 -1.48386719 18.74929687 -1.44335938 17.58984375 C-1.21827453 11.66838092 -0.85527916 5.86477138 0 0 Z " fill="#E72328" transform="translate(58,148)"/>
<path d="M0 0 C8.25298246 5.19477069 15.39918623 12.10066616 17.91015625 21.76953125 C19.55331079 32.83666032 19.10461687 42.96106227 12.3203125 52.14453125 C7.91337887 57.37348358 3.77376331 61.14605205 -2.69140625 63.453125 C-3.76390625 63.865625 -4.83640625 64.278125 -5.94140625 64.703125 C-16.09441588 66.73372693 -24.98002746 65.74815122 -33.94140625 60.578125 C-41.77218902 54.52706558 -47.73387524 47.30055197 -49.69140625 37.453125 C-50.89301814 27.16679902 -48.95127735 18.67749977 -43.08203125 10.1015625 C-32.87392383 -2.40102778 -14.88122055 -7.12692519 0 0 Z M-37.69140625 9.453125 C-43.96341745 17.53285873 -46.32566914 24.76952421 -46.125 35.0390625 C-44.97445363 44.0983195 -40.06403659 51.26596162 -33.03125 56.89453125 C-25.55693426 61.87324908 -17.50079898 62.40578108 -8.69140625 61.453125 C-2.08686856 59.82725133 3.98041017 56.79473693 8.30859375 51.453125 C13.37629042 42.8999537 16.37973998 35.44559877 15.30859375 25.453125 C12.28632196 15.66597541 6.40492028 7.98017492 -2.62890625 3.140625 C-13.94861061 -1.54404995 -29.00962415 0.53018229 -37.69140625 9.453125 Z " fill="#237297" transform="translate(293.69140625,31.546875)"/>
<path d="M0 0 C12.87 0 25.74 0 39 0 C39 2.64 39 5.28 39 8 C34.05 8 29.1 8 24 8 C24 22.19 24 36.38 24 51 C21.03 51 18.06 51 15 51 C15 36.81 15 22.62 15 8 C10.05 8 5.1 8 0 8 C0 5.36 0 2.72 0 0 Z " fill="#000000" transform="translate(116,82)"/>
<path d="M0 0 C2.64 0 5.28 0 8 0 C8.33 3.63 8.66 7.26 9 11 C9.66 10.67 10.32 10.34 11 10 C15.18144011 9.60552452 17.30946048 9.54964814 20.875 11.875 C24.13543879 15.13543879 24.22864118 17.22413495 24.375 21.75 C24.27621749 28.59892086 24.27621749 28.59892086 22.125 31.75 C17.73174287 34.91314513 14.23090701 34.4999451 9 34 C8.34 34 7.68 34 7 34 C4.69 34 2.38 34 0 34 C0 22.78 0 11.56 0 0 Z " fill="#E62228" transform="translate(125,147)"/>
<path d="M0 0 C3.32255304 2.07500439 6.23284064 4.46568128 8 8 C8.57322775 12.69858808 8.41740893 16.14972255 6.3125 20.4375 C2.72882103 24.40860372 0.33341086 24.87300849 -4.9375 25.375 C-9.21925938 25.26168312 -11.72935008 23.80341422 -15 21 C-17.54927287 16.8125346 -17.82051202 12.7821761 -17 8 C-15.33797623 4.86797912 -13.01036237 2.7664818 -10.1875 0.625 C-6.69438338 -0.37303332 -3.5403205 -0.77650152 0 0 Z " fill="#E72328" transform="translate(113,201)"/>
<path d="M0 0 C3.85852527 3.29109509 4.99871965 5.67597688 5.5625 10.75 C5.40181098 15.00022461 3.85494473 17.53656633 1.125 20.8125 C-3.33619443 23.78662962 -7.64547545 23.55850921 -12.875 22.8125 C-16.54768956 20.96549945 -18.55731478 18.76555566 -19.875 14.8125 C-20.26808695 10.01683923 -20.35770142 7.74342416 -18.125 3.4375 C-13.33257941 -2.15365735 -6.67310728 -2.75628344 0 0 Z " fill="#E62028" transform="translate(115.875,158.1875)"/>
<path d="M0 0 C2.69990662 1.79993774 4.5418865 3.083773 6 6 C6.08342159 7.44848582 6.10732861 8.90070869 6.09765625 10.3515625 C6.09443359 11.20234375 6.09121094 12.053125 6.08789062 12.9296875 C6.07951172 13.81914062 6.07113281 14.70859375 6.0625 15.625 C6.05798828 16.5221875 6.05347656 17.419375 6.04882812 18.34375 C6.03702591 20.56256648 6.02056155 22.78125018 6 25 C3.36 25 0.72 25 -2 25 C-2.33 19.39 -2.66 13.78 -3 8 C-4.65 8 -6.3 8 -8 8 C-8.33 13.61 -8.66 19.22 -9 25 C-11.64 25 -14.28 25 -17 25 C-17 17.08 -17 9.16 -17 1 C-14 1 -11 1 -8 1 C-5.14675563 -0.42662219 -3.16545451 -0.31033868 0 0 Z " fill="#E72927" transform="translate(142,201)"/>
<path d="M0 0 C3.3805668 1.7552943 5.45527532 3.05911192 7.375 6.375 C8 9 8 9 8 15 C2.72 15 -2.56 15 -8 15 C-4.6133629 18.3866371 -3.8662468 18.41963254 0.6875 18.6875 C1.68136719 18.75324219 2.67523438 18.81898438 3.69921875 18.88671875 C4.45847656 18.92410156 5.21773437 18.96148437 6 19 C6 20.65 6 22.3 6 24 C1.36613361 25.54462213 -3.16597554 25.63442261 -8 25 C-11.17739189 23.35291871 -13.37781742 21.24436516 -15 18 C-15.6198407 13.7081916 -15.95106138 9.67940586 -13.765625 5.8203125 C-9.72409697 0.99848946 -6.44766904 -0.63212442 0 0 Z " fill="#E72428" transform="translate(167,201)"/>
<path d="M0 0 C3.18712101 1.8308993 4.58021107 3.22039198 6.3125 6.4375 C7.02695621 9.10047314 7.22862164 11.2565403 7 14 C5.05909174 15.94090826 1.52706098 15.39919435 -1.0625 15.5625 C-2.99802734 15.68818359 -2.99802734 15.68818359 -4.97265625 15.81640625 C-5.97167969 15.87699219 -6.97070312 15.93757812 -8 16 C-4.68629 18.20914 -3.6553979 18.22481553 0.1875 18.125 C1.53908203 18.09792969 1.53908203 18.09792969 2.91796875 18.0703125 C3.60503906 18.04710937 4.29210937 18.02390625 5 18 C5.042721 19.66611905 5.04063832 21.33382885 5 23 C3.07229125 24.92770875 -0.18351486 24.30577945 -2.75 24.375 C-9.33346229 24.34821073 -9.33346229 24.34821073 -12.00390625 22.953125 C-15.07194506 19.83929457 -16.17516349 17.00020344 -16.3125 12.75 C-16.26781479 8.12508029 -15.04490209 5.5668853 -12 2 C-7.96839035 -0.68773977 -4.73576122 -0.67415933 0 0 Z " fill="#E72528" transform="translate(195,157)"/>
<path d="M0 0 C2.97 0 5.94 0 9 0 C9.50512244 1.60256108 10.00391627 3.20711792 10.5 4.8125 C10.7784375 5.70582031 11.056875 6.59914062 11.34375 7.51953125 C12 10 12 10 12 13 C12.66 13 13.32 13 14 13 C14.12375 11.783125 14.2475 10.56625 14.375 9.3125 C14.78891306 5.93520941 15.54573451 3.10243305 17 0 C19.64 0 22.28 0 25 0 C23.95311399 3.31763486 22.88461128 6.6279391 21.8125 9.9375 C21.52052734 10.86369141 21.22855469 11.78988281 20.92773438 12.74414062 C15.83572786 28.34867671 15.83572786 28.34867671 9.875 32.5625 C7 34 7 34 4 34 C3.67 31.69 3.34 29.38 3 27 C4.65 26.01 6.3 25.02 8 24 C7.27282684 18.96099727 5.31890778 14.44420556 3.4375 9.75 C2.78894264 8.12035685 2.14173103 6.49017724 1.49609375 4.859375 C1.20919678 4.14233398 0.9222998 3.42529297 0.62670898 2.68652344 C0 1 0 1 0 0 Z " fill="#E62228" transform="translate(176,202)"/>
<path d="M0 0 C4.30631573 0.23138413 7.70894125 1.158629 11.73828125 2.5859375 C12.40537109 2.80765625 13.07246094 3.029375 13.75976562 3.2578125 C16.69110914 4.26352067 18.70736595 4.9925222 20.92578125 7.2109375 C20.97265625 9.7421875 20.97265625 9.7421875 20.67578125 12.7109375 C20.588125 13.690625 20.50046875 14.6703125 20.41015625 15.6796875 C19.92578125 18.2109375 19.92578125 18.2109375 17.92578125 20.2109375 C10.36182781 19.96293903 2.91343595 18.11828307 -4.07421875 15.2109375 C-6.07421875 12.2109375 -6.07421875 12.2109375 -5.8671875 9.546875 C-5.56748047 8.08121094 -5.56748047 8.08121094 -5.26171875 6.5859375 C-4.97361328 5.11253906 -4.97361328 5.11253906 -4.6796875 3.609375 C-3.79057129 0.08732755 -3.75653999 0.25775497 0 0 Z " fill="#060606" transform="translate(308.07421875,214.7890625)"/>
<path d="M0 0 C19.08390023 3.08390023 19.08390023 3.08390023 23 7 C23.32431261 11.94576735 23.25491788 15.49016424 21 20 C13.26699212 20.61864063 6.25795621 18.60981627 -1 16 C-3.50009087 13.49990913 -3.29712739 12.5787141 -3.3125 9.125 C-3.32925781 8.26132813 -3.34601563 7.39765625 -3.36328125 6.5078125 C-2.93757021 3.56903308 -1.94053466 2.20166201 0 0 Z " fill="#060606" transform="translate(310,193)"/>
<path d="M0 0 C5.06137298 0.40970018 9.91907221 1.62771684 14.8125 2.9375 C15.47958984 3.10701172 16.14667969 3.27652344 16.83398438 3.45117188 C21.75793055 4.75793055 21.75793055 4.75793055 24 7 C24.046875 9.53125 24.046875 9.53125 23.75 12.5 C23.66234375 13.4796875 23.5746875 14.459375 23.484375 15.46875 C23 18 23 18 21 20 C13.83266183 19.59430161 4.14035634 18.73467981 -1.8984375 14.74609375 C-3.50703165 12.1963009 -3.14724435 10.39506477 -2.8125 7.4375 C-2.71582031 6.46683594 -2.61914062 5.49617187 -2.51953125 4.49609375 C-2 2 -2 2 0 0 Z " fill="#060606" transform="translate(314,172)"/>
<path d="M0 0 C7.31126759 0.57343275 17.67715994 1.67715994 23 7 C23.046875 9.0234375 23.046875 9.0234375 22.75 11.375 C22.66234375 12.14585937 22.5746875 12.91671875 22.484375 13.7109375 C21.98335114 16.0786793 21.17347456 17.89351698 20 20 C12.50993345 19.50066223 2.51960605 18.51960605 -3 13 C-2.68794085 8.24109792 -2.03944563 4.35081734 0 0 Z " fill="#090909" transform="translate(271,204)"/>
<path d="M0 0 C2.44771353 0.1631809 4.60505954 0.50504564 7 1 C8.0828125 1.22171875 9.165625 1.4434375 10.28125 1.671875 C19.71786723 3.71786723 19.71786723 3.71786723 22 6 C22.32431261 10.94576735 22.25491788 14.49016424 20 19 C14.8469926 19.19844701 10.62859149 18.57919878 5.6875 17.125 C4.47449219 16.77695313 3.26148438 16.42890625 2.01171875 16.0703125 C-1 15 -1 15 -3 13 C-3.046875 10.46875 -3.046875 10.46875 -2.75 7.5 C-2.66234375 6.5203125 -2.5746875 5.540625 -2.484375 4.53125 C-2 2 -2 2 0 0 Z " fill="#060606" transform="translate(280,163)"/>
<path d="M0 0 C18.54545455 1.54545455 18.54545455 1.54545455 23 6 C23.046875 8.53125 23.046875 8.53125 22.75 11.5 C22.66234375 12.4796875 22.5746875 13.459375 22.484375 14.46875 C22 17 22 17 20 19 C13.12093129 18.6724253 3.05118696 18.05118696 -2 13 C-2.32431261 8.05423265 -2.25491788 4.50983576 0 0 Z " fill="#050505" transform="translate(275,184)"/>
<path d="M0 0 C2.64 0 5.28 0 8 0 C8 11.22 8 22.44 8 34 C5.36 34 2.72 34 0 34 C0 22.78 0 11.56 0 0 Z " fill="#E62128" transform="translate(167,147)"/>
<path d="M0 0 C6.16356805 1.6658292 11.48259656 4.87805286 17 8 C16.67 8.99 16.34 9.98 16 11 C12.04179141 10.43454163 9.3340947 9.19097652 6 7 C6.66708984 7.81404297 6.66708984 7.81404297 7.34765625 8.64453125 C8.19650391 9.71767578 8.19650391 9.71767578 9.0625 10.8125 C9.63097656 11.52019531 10.19945312 12.22789063 10.78515625 12.95703125 C11.38650391 13.96830078 11.38650391 13.96830078 12 15 C11.67 15.99 11.34 16.98 11 18 C7.37 17.34 3.74 16.68 0 16 C1.32 16.763125 2.64 17.52625 4 18.3125 C6.25 19.61328125 6.25 19.61328125 8 21 C8 21.99 8 22.98 8 24 C3.44299575 23.47515308 0.807126 21.68492697 -2.8125 18.9375 C-3.78832031 18.20402344 -4.76414062 17.47054687 -5.76953125 16.71484375 C-6.50558594 16.14894531 -7.24164063 15.58304688 -8 15 C-7.34 13.68 -6.68 12.36 -6 11 C-2.37 11.33 1.26 11.66 5 12 C3.989375 10.948125 2.97875 9.89625 1.9375 8.8125 C-1.01735501 5.40784271 -1.01735501 5.40784271 -0.875 2.0625 C-0.58625 1.381875 -0.2975 0.70125 0 0 Z " fill="#267499" transform="translate(265,64)"/>
<path d="M0 0 C3.91114026 0.67400718 6.87119182 2.54256033 10.25 4.5625 C11.32765625 5.20316406 12.4053125 5.84382813 13.515625 6.50390625 C14.33546875 6.99761719 15.1553125 7.49132813 16 8 C15.67 9.32 15.34 10.64 15 12 C9.06 12.495 9.06 12.495 3 13 C5.64 14.65 8.28 16.3 11 18 C10.67 18.99 10.34 19.98 10 21 C6.35524815 19.63649571 3.08755513 17.998536 -0.25 16 C-1.55710937 15.2265625 -1.55710937 15.2265625 -2.890625 14.4375 C-5 13 -5 13 -6 11 C-4 8 -4 8 -1.6171875 7.48828125 C-0.71226562 7.43027344 0.19265625 7.37226562 1.125 7.3125 C2.49011719 7.21388672 2.49011719 7.21388672 3.8828125 7.11328125 C4.93082031 7.05720703 4.93082031 7.05720703 6 7 C5.01 6.401875 4.02 5.80375 3 5.1875 C2.01 4.465625 1.02 3.74375 0 3 C0 2.01 0 1.02 0 0 Z " fill="#2C789C" transform="translate(281,37)"/>
<path d="M0 0 C0 0.33 0 0.66 0 1 C1.98 1.33 3.96 1.66 6 2 C6 2.33 6 2.66 6 3 C5.23816406 3.02578125 4.47632813 3.0515625 3.69140625 3.078125 C-6.71624738 3.64983132 -15.45115441 6.53061594 -23 14 C-28.49191981 21.47680435 -31.19351644 28.59810355 -31.625 37.875 C-31.68300781 38.90753906 -31.68300781 38.90753906 -31.7421875 39.9609375 C-31.83548166 41.64023246 -31.91878238 43.32007767 -32 45 C-32.66 45 -33.32 45 -34 45 C-36.90361559 36.28915324 -34.53497731 27.50500022 -30.81640625 19.4296875 C-25.58311021 9.73400588 -17.85408387 4.12724883 -7.54296875 0.59375 C-4.93792452 -0.01449381 -2.66503657 -0.11483102 0 0 Z " fill="#E6EFF3" transform="translate(276,26)"/>
<path d="M0 0 C2.31 0 4.62 0 7 0 C7 7.92 7 15.84 7 24 C4.69 24 2.38 24 0 24 C0 16.08 0 8.16 0 0 Z " fill="#E61D28" transform="translate(154,157)"/>
<path d="M0 0 C0.33 0 0.66 0 1 0 C0.68191136 9.86074783 -3.14422219 16.58419461 -10.25 23.375 C-14.82271897 27.21018365 -20.82798002 31 -27 31 C-27 30.34 -27 29.68 -27 29 C-27.66 28.67 -28.32 28.34 -29 28 C-28.23816406 27.8040625 -27.47632813 27.608125 -26.69140625 27.40625 C-17.95988748 24.87727078 -11.31806986 21.38874503 -6.44140625 13.46875 C-5.1942391 11.01142362 -4.07757588 8.53547265 -3 6 C-2.40548036 4.7868911 -1.80298539 3.57760739 -1.1875 2.375 C-0.795625 1.59125 -0.40375 0.8075 0 0 Z " fill="#EFF5F7" transform="translate(313,68)"/>
<path d="M0 0 C1.9375 0.8125 1.9375 0.8125 3.9375 2.8125 C4.40126812 10.11684783 4.40126812 10.11684783 1.9375 13.8125 C-0.5625 14.1875 -0.5625 14.1875 -3.0625 13.8125 C-5.59560053 10.01284921 -5.66468032 7.26863438 -5.0625 2.8125 C-3.52477558 0.2752547 -2.96930283 -0.26993662 0 0 Z " fill="#FCC018" transform="translate(109.0625,162.1875)"/>
<path d="M0 0 C2.5 -0.375 2.5 -0.375 5 0 C7.47342266 3.71013399 7.38503486 5.61060262 7 10 C5.5 12.4375 5.5 12.4375 4 14 C2.125 13.6875 2.125 13.6875 0 13 C-2.45811625 9.31282562 -2.31118164 7.35654296 -2 3 C-1.34 2.01 -0.68 1.02 0 0 Z " fill="#FDC218" transform="translate(106,207)"/>
<path d="M0 0 C0.99 0 1.98 0 3 0 C2.49396008 2.16874252 2.00016187 3.99967627 1 6 C1.66 6.226875 2.32 6.45375 3 6.6875 C6.92734533 8.40571358 10.41260178 10.66774607 14 13 C13.01 13.99 12.02 14.98 11 16 C10.31292969 15.57847656 9.62585938 15.15695313 8.91796875 14.72265625 C8.01691406 14.17480469 7.11585938 13.62695312 6.1875 13.0625 C4.84751953 12.24458984 4.84751953 12.24458984 3.48046875 11.41015625 C0.99296438 9.88990422 0.99296438 9.88990422 -2 9 C-2.66 10.32 -3.32 11.64 -4 13 C-4.66 12.67 -5.32 12.34 -6 12 C-4.43358249 7.69235185 -2.31663844 3.93828536 0 0 Z " fill="#267499" transform="translate(273,51)"/>
<path d="M0 0 C1.2375 0.1546875 1.2375 0.1546875 2.5 0.3125 C4.94897847 3.98596771 4.81537716 5.97606399 4.5 10.3125 C2.5 12.3125 2.5 12.3125 -0.5625 12.5 C-3.5 12.3125 -3.5 12.3125 -4.5 11.3125 C-4.66796875 9.31640625 -4.66796875 9.31640625 -4.6875 6.875 C-4.70167969 6.07191406 -4.71585938 5.26882812 -4.73046875 4.44140625 C-4.37393036 1.14795839 -3.20306558 0.4003832 0 0 Z " fill="#FCC218" transform="translate(137.5,162.6875)"/>
<path d="M0 0 C0.625 2.375 0.625 2.375 1 5 C0.34 5.66 -0.32 6.32 -1 7 C-5.55555556 6.44444444 -5.55555556 6.44444444 -7 5 C-7.04063832 3.33382885 -7.042721 1.66611905 -7 0 C-4.3333581 -1.33332095 -2.83319697 -0.67102033 0 0 Z " fill="#E82E27" transform="translate(161,148)"/>
<path d="M0 0 C0 0.99 0 1.98 0 3 C-4.95 4.485 -4.95 4.485 -10 6 C-10 5.34 -10 4.68 -10 4 C-10.66 3.67 -11.32 3.34 -12 3 C-10.56445975 2.49440092 -9.1264798 1.9957251 -7.6875 1.5 C-6.88699219 1.2215625 -6.08648437 0.943125 -5.26171875 0.65625 C-3 0 -3 0 0 0 Z " fill="#E1ECF1" transform="translate(296,93)"/>
<path d="M0 0 C2.0625 0.4375 2.0625 0.4375 4 1 C4.33 2.32 4.66 3.64 5 5 C2.36 5 -0.28 5 -3 5 C-1.125 1.125 -1.125 1.125 0 0 Z " fill="#FBBA19" transform="translate(162,206)"/>
<path d="M0 0 C1.65 0 3.3 0 5 0 C5.33 1.32 5.66 2.64 6 4 C3.69 4 1.38 4 -1 4 C-0.67 2.68 -0.34 1.36 0 0 Z " fill="#FCBF19" transform="translate(188,162)"/>
</svg>
